<svg xmlns="http://www.w3.org/2000/svg" width="155.137" height="117.102" viewBox="0 0 155.137 117.102">
  <g id="Group_102" data-name="Group 102" transform="translate(-2816.5 3106.5)">
    <circle id="Ellipse_60" data-name="Ellipse 60" cx="24.022" cy="24.022" r="24.022" transform="translate(2859.036 -3055.956)" stroke-width="5" stroke="#f93" stroke-linecap="round" stroke-linejoin="round" stroke-miterlimit="10" fill="none"/>
    <path id="Path_122" data-name="Path 122" d="M14,11V21.009H24.009" transform="translate(2869.058 -3052.943)" fill="none" stroke="#f93" stroke-linecap="round" stroke-linejoin="round" stroke-miterlimit="10" stroke-width="5"/>
    <path id="Path_123" data-name="Path 123" d="M17.678,31.655,17,18h88.08l-3.623,72.466a8.007,8.007,0,0,1-7.987,7.607H28.621a8.007,8.007,0,0,1-8.007-7.607l-.251-4.7" transform="translate(2864.057 -3089.971)" fill="none" stroke="#f93" stroke-linecap="round" stroke-linejoin="round" stroke-miterlimit="10" stroke-width="5"/>
    <path id="Path_124" data-name="Path 124" d="M30,34.029V20.016A18.016,18.016,0,0,1,48.016,2h0A18.016,18.016,0,0,1,66.033,20.016V34.029" transform="translate(2877.08 -3106)" fill="none" stroke="#f93" stroke-linecap="round" stroke-linejoin="round" stroke-miterlimit="10" stroke-width="5"/>
    <line id="Line_85" data-name="Line 85" x2="22.02" transform="translate(2819 -3031.935)" fill="none" stroke="#f93" stroke-linecap="round" stroke-miterlimit="10" stroke-width="5"/>
    <line id="Line_86" data-name="Line 86" x2="21.299" transform="translate(2829.73 -3047.949)" fill="none" stroke="#f93" stroke-linecap="round" stroke-miterlimit="10" stroke-width="5"/>
    <line id="Line_87" data-name="Line 87" x2="21.299" transform="translate(2829.73 -3015.92)" fill="none" stroke="#f93" stroke-linecap="round" stroke-miterlimit="10" stroke-width="5"/>
  </g>
</svg>