<svg xmlns="http://www.w3.org/2000/svg" width="246.287" height="237.156" viewBox="0 0 246.287 237.156"><defs><style>.a,.b{fill:none;stroke:#f93;stroke-linecap:round;stroke-miterlimit:10;stroke-width:6px;}.a{stroke-linejoin:round;}</style></defs><g transform="matrix(-0.966, 0.259, -0.259, -0.966, 252.408, 180.586)"><path class="a" d="M181.669,37.847h0A37.846,37.846,0,0,0,143.822,0H37.849A37.847,37.847,0,0,0,0,37.847H0" transform="translate(22.708 0)"/><path class="a" d="M0,0H0A75.694,75.694,0,0,0,75.7,75.694h30.278A75.693,75.693,0,0,0,181.669,0" transform="translate(22.708 113.543)"/><line class="b" x1="7.57" y2="7.57" transform="translate(68.126 136.252)"/><line class="b" x2="7.57" y2="7.57" transform="translate(105.973 151.391)"/><line class="b" y2="7.57" transform="translate(158.96 143.821)"/><path class="a" d="M121.112,30.278H11.355A11.353,11.353,0,0,0,0,41.632H0A11.353,11.353,0,0,0,11.355,52.987H215.731a11.353,11.353,0,0,0,11.353-11.355h0a11.353,11.353,0,0,0-11.353-11.353H181.669L151.39,0Z" transform="translate(0 60.557)"/><path class="a" d="M200.592,52.988a26.493,26.493,0,0,0,26.492-26.494h0A26.493,26.493,0,0,0,200.592,0H26.494A26.494,26.494,0,0,0,0,26.494H0A26.494,26.494,0,0,0,26.494,52.988" transform="translate(0 37.847)"/></g></svg>