<svg xmlns="http://www.w3.org/2000/svg" width="240.963" height="226.296" viewBox="0 0 240.963 226.296">
  <g id="Group_18" data-name="Group 18" transform="translate(237.575 193.794) rotate(172)">
    <path id="Path_55" data-name="Path 55" d="M143.264,0H65.94A104.559,104.559,0,0,0,0,97.124H209.188A104.561,104.561,0,0,0,143.264,0Z" transform="translate(0 0)" fill="none" stroke="#f93" stroke-linecap="round" stroke-linejoin="round" stroke-miterlimit="10" stroke-width="6"/>
    <path id="Path_56" data-name="Path 56" d="M59.767,74.71h0A59.767,59.767,0,0,1,0,14.942V0H0A59.768,59.768,0,0,1,59.767,59.769V74.71Z" transform="translate(149.421 119.537)" fill="none" stroke="#f93" stroke-linecap="round" stroke-linejoin="round" stroke-miterlimit="10" stroke-width="6"/>
    <path id="Path_57" data-name="Path 57" d="M0,0A33.621,33.621,0,0,1,33.62,33.62" transform="translate(63.504 123.272)" fill="none" stroke="#f93" stroke-linecap="round" stroke-miterlimit="10" stroke-width="6"/>
    <path id="Path_58" data-name="Path 58" d="M0,0A37.325,37.325,0,0,0,35.368,37.255a50.392,50.392,0,0,0,87.9,18.726" transform="translate(14.942 119.537)" fill="none" stroke="#f93" stroke-linecap="round" stroke-linejoin="round" stroke-miterlimit="10" stroke-width="6"/>
  </g>
</svg>