<svg xmlns="http://www.w3.org/2000/svg" width="40" height="40" viewBox="0 0 24 24">
  <path fill="#4C214D" d="M12 2C6.48 2 2 6.48 2 12s4.48 10 10 10 10-4.48 10-10S17.52 2 12 2zm0 18c-4.41 0-8-3.59-8-8s3.59-8 8-8 8 3.59 8 8-3.59 8-8 8zm-1-12h2v4h-2zm0 6h2v2h-2z"/>
  <path fill="none" d="M0 0h24v24H0z"/>
  <path fill="#4C214D" d="M12,3.1A8.9,8.9,0,1,0,20.9,12,8.9,8.9,0,0,0,12,3.1ZM12,20A8,8,0,1,1,20,12,8,8,0,0,1,12,20ZM12,6.5A1.5,1.5,0,1,0,13.5,8,1.5,1.5,0,0,0,12,6.5ZM12,16a4,4,0,0,0,4-4H8A4,4,0,0,0,12,16Z"/>
</svg> 