<svg xmlns="http://www.w3.org/2000/svg" width="32" height="32" viewBox="0 0 24 24">
  <path fill-rule="evenodd" clip-rule="evenodd" d="M21.487 6.278C22.25 8.167 22.25 12 22.25 12C22.25 12 22.25 15.833 21.487 17.722C21.036 18.841 20.082 19.583 18.887 19.82C17.065 20.25 12.125 20.25 12.125 20.25C12.125 20.25 7.185 20.25 5.363 19.82C4.168 19.583 3.214 18.841 2.763 17.722C2 15.833 2 12 2 12C2 12 2 8.167 2.763 6.278C3.214 5.159 4.168 4.417 5.363 4.18C7.185 3.75 12.125 3.75 12.125 3.75C12.125 3.75 17.065 3.75 18.887 4.18C20.082 4.417 21.036 5.159 21.487 6.278ZM9.742 15.375V8.625L15.617 12L9.742 15.375Z" fill="#333"/>
</svg> 